<?xml version="1.0" ?><svg enable-background="new 0 0 200 200" id="Layer_1" version="1.1" viewBox="0 0 200 200" xml:space="preserve" xmlns="http://www.w3.org/2000/svg" xmlns:xlink="http://www.w3.org/1999/xlink"><g><linearGradient gradientUnits="userSpaceOnUse" id="SVGID_1_" x1="29.0904" x2="161.6897" y1="175.4625" y2="42.8632"><stop offset="1.274966e-07" style="stop-color:#12C2E9"/><stop offset="0.4754" style="stop-color:#C471ED"/><stop offset="1" style="stop-color:#F64F59"/></linearGradient><path d="M162.511,24.647v-5.706c0-1.933-1.567-3.5-3.5-3.5s-3.5,1.567-3.5,3.5v5.602h-16.604v-5.602   c0-1.933-1.567-3.5-3.5-3.5s-3.5,1.567-3.5,3.5v5.602h-16.604v-5.602c0-1.933-1.567-3.5-3.5-3.5s-3.5,1.567-3.5,3.5v5.602H91.698   v-5.602c0-1.933-1.567-3.5-3.5-3.5s-3.5,1.567-3.5,3.5v5.602H68.094v-5.602c0-1.933-1.567-3.5-3.5-3.5s-3.5,1.567-3.5,3.5v5.602   H44.489v-5.602c0-1.933-1.567-3.5-3.5-3.5s-3.5,1.567-3.5,3.5v5.706C24.985,25.77,15.15,36.302,15.15,49.094v9.488   c0,0.002,0,0.003,0,0.005s0,0.003,0,0.005v62.994c0,1.933,1.567,3.5,3.5,3.5s3.5-1.567,3.5-3.5V62.087h2.834   c1.933,0,3.5-1.567,3.5-3.5s-1.567-3.5-3.5-3.5H22.15v-5.993c0-8.927,6.704-16.303,15.339-17.396v5.447c0,1.933,1.567,3.5,3.5,3.5   s3.5-1.567,3.5-3.5v-5.602h16.604v5.602c0,1.933,1.567,3.5,3.5,3.5s3.5-1.567,3.5-3.5v-5.602h16.604v5.602   c0,1.933,1.567,3.5,3.5,3.5s3.5-1.567,3.5-3.5v-5.602h16.605v5.602c0,1.933,1.567,3.5,3.5,3.5s3.5-1.567,3.5-3.5v-5.602h16.604   v5.602c0,1.933,1.567,3.5,3.5,3.5s3.5-1.567,3.5-3.5v-5.602h16.604v5.602c0,1.933,1.567,3.5,3.5,3.5s3.5-1.567,3.5-3.5v-5.447   c8.635,1.093,15.34,8.469,15.34,17.396v5.993h-2.839c-1.933,0-3.5,1.567-3.5,3.5s1.567,3.5,3.5,3.5h2.839v97.921   c0,9.678-7.873,17.551-17.551,17.551H39.701c-9.678,0-17.551-7.873-17.551-17.551v-23.051c0-1.933-1.567-3.5-3.5-3.5   s-3.5,1.567-3.5,3.5v23.051c0,13.537,11.013,24.551,24.551,24.551H160.3c13.537,0,24.551-11.014,24.551-24.551V49.094   C184.851,36.302,175.015,25.769,162.511,24.647z" fill="url(#SVGID_1_)"/><linearGradient gradientUnits="userSpaceOnUse" id="SVGID_2_" x1="89.4663" x2="222.0656" y1="235.8384" y2="103.2392"><stop offset="1.274966e-07" style="stop-color:#12C2E9"/><stop offset="0.4754" style="stop-color:#C471ED"/><stop offset="1" style="stop-color:#F64F59"/></linearGradient><path d="M156.732,168.856c0,1.933,1.567,3.5,3.5,3.5c6.815,0,12.359-5.544,12.359-12.358v-11.231   c0-1.933-1.567-3.5-3.5-3.5s-3.5,1.567-3.5,3.5v11.231c0,2.955-2.404,5.358-5.359,5.358   C158.3,165.356,156.732,166.924,156.732,168.856z" fill="url(#SVGID_2_)"/><linearGradient gradientUnits="userSpaceOnUse" id="SVGID_3_" x1="-21.8154" x2="110.7838" y1="124.5566" y2="-8.0426"><stop offset="1.274966e-07" style="stop-color:#12C2E9"/><stop offset="0.4754" style="stop-color:#C471ED"/><stop offset="1" style="stop-color:#F64F59"/></linearGradient><path d="M47.322,62.087c1.933,0,3.5-1.567,3.5-3.5s-1.567-3.5-3.5-3.5h-6.335c-1.933,0-3.5,1.567-3.5,3.5   s1.567,3.5,3.5,3.5H47.322z" fill="url(#SVGID_3_)"/><linearGradient gradientUnits="userSpaceOnUse" id="SVGID_4_" x1="-10.6466" x2="121.9526" y1="135.7255" y2="3.1262"><stop offset="1.274966e-07" style="stop-color:#12C2E9"/><stop offset="0.4754" style="stop-color:#C471ED"/><stop offset="1" style="stop-color:#F64F59"/></linearGradient><path d="M69.659,62.087c1.933,0,3.5-1.567,3.5-3.5s-1.567-3.5-3.5-3.5h-6.334c-1.933,0-3.5,1.567-3.5,3.5   s1.567,3.5,3.5,3.5H69.659z" fill="url(#SVGID_4_)"/><linearGradient gradientUnits="userSpaceOnUse" id="SVGID_5_" x1="0.5221" x2="133.1213" y1="146.8942" y2="14.2949"><stop offset="1.274966e-07" style="stop-color:#12C2E9"/><stop offset="0.4754" style="stop-color:#C471ED"/><stop offset="1" style="stop-color:#F64F59"/></linearGradient><path d="M91.997,62.087c1.933,0,3.5-1.567,3.5-3.5s-1.567-3.5-3.5-3.5h-6.334c-1.933,0-3.5,1.567-3.5,3.5   s1.567,3.5,3.5,3.5H91.997z" fill="url(#SVGID_5_)"/><linearGradient gradientUnits="userSpaceOnUse" id="SVGID_6_" x1="11.6909" x2="144.2902" y1="158.063" y2="25.4637"><stop offset="1.274966e-07" style="stop-color:#12C2E9"/><stop offset="0.4754" style="stop-color:#C471ED"/><stop offset="1" style="stop-color:#F64F59"/></linearGradient><path d="M114.334,62.087c1.933,0,3.5-1.567,3.5-3.5s-1.567-3.5-3.5-3.5H108c-1.933,0-3.5,1.567-3.5,3.5   s1.567,3.5,3.5,3.5H114.334z" fill="url(#SVGID_6_)"/><linearGradient gradientUnits="userSpaceOnUse" id="SVGID_7_" x1="22.8596" x2="155.4589" y1="169.2317" y2="36.6324"><stop offset="1.274966e-07" style="stop-color:#12C2E9"/><stop offset="0.4754" style="stop-color:#C471ED"/><stop offset="1" style="stop-color:#F64F59"/></linearGradient><path d="M136.672,62.087c1.933,0,3.5-1.567,3.5-3.5s-1.567-3.5-3.5-3.5h-6.335c-1.933,0-3.5,1.567-3.5,3.5   s1.567,3.5,3.5,3.5H136.672z" fill="url(#SVGID_7_)"/><linearGradient gradientUnits="userSpaceOnUse" id="SVGID_8_" x1="34.0283" x2="166.6276" y1="180.4004" y2="47.8011"><stop offset="1.274966e-07" style="stop-color:#12C2E9"/><stop offset="0.4754" style="stop-color:#C471ED"/><stop offset="1" style="stop-color:#F64F59"/></linearGradient><path d="M159.009,55.087h-6.334c-1.933,0-3.5,1.567-3.5,3.5s1.567,3.5,3.5,3.5h6.334   c1.933,0,3.5-1.567,3.5-3.5S160.941,55.087,159.009,55.087z" fill="url(#SVGID_8_)"/><linearGradient gradientUnits="userSpaceOnUse" id="SVGID_9_" x1="25.3173" x2="157.9166" y1="171.6894" y2="39.0902"><stop offset="1.274966e-07" style="stop-color:#12C2E9"/><stop offset="0.4754" style="stop-color:#C471ED"/><stop offset="1" style="stop-color:#F64F59"/></linearGradient><path d="M90.651,97.009c0,5.153,4.193,9.347,9.347,9.347c5.153,0,9.346-4.193,9.346-9.347   s-4.192-9.346-9.346-9.346C94.844,87.663,90.651,91.855,90.651,97.009z M102.344,97.009c0,1.294-1.053,2.347-2.346,2.347   c-1.294,0-2.347-1.053-2.347-2.347c0-1.293,1.053-2.346,2.347-2.346C101.291,94.663,102.344,95.716,102.344,97.009z" fill="url(#SVGID_9_)"/><linearGradient gradientUnits="userSpaceOnUse" id="SVGID_10_" x1="47.0325" x2="179.6318" y1="193.4046" y2="60.8054"><stop offset="1.274966e-07" style="stop-color:#12C2E9"/><stop offset="0.4754" style="stop-color:#C471ED"/><stop offset="1" style="stop-color:#F64F59"/></linearGradient><path d="M99.998,149.786c5.153,0,9.346-4.193,9.346-9.347s-4.192-9.347-9.346-9.347   c-5.154,0-9.347,4.193-9.347,9.347S94.844,149.786,99.998,149.786z M99.998,138.093c1.293,0,2.346,1.053,2.346,2.347   s-1.053,2.347-2.346,2.347c-1.294,0-2.347-1.053-2.347-2.347S98.704,138.093,99.998,138.093z" fill="url(#SVGID_10_)"/><linearGradient gradientUnits="userSpaceOnUse" id="SVGID_11_" x1="36.1772" x2="168.7764" y1="182.5493" y2="49.95"><stop offset="1.274966e-07" style="stop-color:#12C2E9"/><stop offset="0.4754" style="stop-color:#C471ED"/><stop offset="1" style="stop-color:#F64F59"/></linearGradient><path d="M99.998,165.66c25.878,0,46.932-21.054,46.932-46.932s-21.054-46.932-46.932-46.932   c-25.878,0-46.932,21.054-46.932,46.932S74.12,165.66,99.998,165.66z M139.93,118.729c0,13.64-6.875,25.704-17.34,32.911   c0.02-0.041,0.037-0.083,0.058-0.124c0.142-0.289,0.275-0.582,0.406-0.877c0.05-0.112,0.103-0.222,0.152-0.335   c0.173-0.406,0.337-0.818,0.489-1.235c0.037-0.102,0.069-0.206,0.104-0.308c0.112-0.319,0.22-0.639,0.319-0.964   c0.049-0.159,0.091-0.321,0.137-0.482c0.078-0.274,0.153-0.548,0.222-0.825c0.043-0.175,0.083-0.352,0.122-0.529   c0.06-0.27,0.117-0.54,0.169-0.813c0.034-0.181,0.067-0.361,0.097-0.543c0.046-0.278,0.087-0.558,0.124-0.839   c0.023-0.177,0.048-0.354,0.068-0.532c0.034-0.308,0.059-0.619,0.082-0.93c0.011-0.152,0.026-0.303,0.035-0.456   c0.026-0.465,0.041-0.933,0.041-1.404c0-13.904-11.312-25.216-25.216-25.216c-10.044,0-18.216-8.172-18.216-18.216   s8.171-18.216,18.216-18.216C122.017,78.797,139.93,96.71,139.93,118.729z M77.406,85.817c-0.02,0.041-0.037,0.083-0.057,0.124   c-0.144,0.294-0.28,0.592-0.413,0.891c-0.047,0.106-0.098,0.21-0.144,0.317c-0.174,0.409-0.339,0.823-0.492,1.242   c-0.033,0.09-0.061,0.182-0.092,0.272c-0.116,0.331-0.229,0.663-0.331,1c-0.047,0.153-0.088,0.308-0.131,0.462   c-0.08,0.28-0.157,0.561-0.227,0.845c-0.042,0.171-0.081,0.344-0.12,0.517c-0.061,0.273-0.119,0.548-0.171,0.825   c-0.034,0.178-0.066,0.356-0.096,0.535c-0.047,0.281-0.088,0.564-0.125,0.849c-0.023,0.174-0.047,0.348-0.067,0.523   c-0.034,0.31-0.06,0.622-0.082,0.935c-0.011,0.151-0.026,0.302-0.035,0.454c-0.026,0.465-0.041,0.933-0.041,1.404   c0,1.304,0.099,2.584,0.291,3.835c0.128,0.834,0.297,1.654,0.504,2.459c0.104,0.403,0.217,0.801,0.34,1.196   c3.197,10.258,12.783,17.726,24.08,17.726c10.044,0,18.216,8.172,18.216,18.216s-8.172,18.216-18.216,18.216   c-22.019,0-39.932-17.913-39.932-39.932C60.066,105.089,66.941,93.024,77.406,85.817z" fill="url(#SVGID_11_)"/></g></svg>